<?xml version="1.0" encoding="UTF-8" standalone="no"?><!DOCTYPE svg PUBLIC "-//W3C//DTD SVG 1.1//EN" "http://www.w3.org/Graphics/SVG/1.1/DTD/svg11.dtd"><svg width="100%" height="100%" viewBox="0 0 100 100" version="1.1" xmlns="http://www.w3.org/2000/svg" xmlns:xlink="http://www.w3.org/1999/xlink" xml:space="preserve" xmlns:serif="http://www.serif.com/" style="fill-rule:evenodd;clip-rule:evenodd;stroke-linecap:round;stroke-linejoin:round;stroke-miterlimit:2;"><g id="_puck"><path id="ARC" d="M6.138,59.645c2.302,11.729 9.173,22.059 19.097,28.706c9.923,6.647 22.082,9.064 33.79,6.718c11.708,-2.346 22,-9.262 28.604,-19.221c6.604,-9.959 8.974,-22.14 6.589,-33.852" style="fill:#fff;stroke:#333;stroke-width:2px;"/><path id="CIRCLE" d="M49.825,94.056c24.809,0 44.95,-20.164 44.95,-45c-0,-24.836 -20.141,-45 -44.95,-45c-24.808,0 -44.949,20.164 -44.949,45c0,24.836 20.141,45 44.949,45Z" style="fill:#fff;stroke:#333;stroke-width:2px;"/><path id="CIRCLE1" serif:id="CIRCLE" d="M49.825,91.056c23.155,0 41.953,-18.819 41.953,-42c0,-23.18 -18.798,-42 -41.953,-42c-23.154,0 -41.952,18.82 -41.952,42c-0,23.181 18.798,42 41.952,42Z" style="fill:#fff;stroke:#333;stroke-width:2px;"/></g><g id="__text25"><path id="_2DPOLYLINE" serif:id="2DPOLYLINE" d="M25.775,36.574l-2.354,1.178l-2.399,2.402l-1.177,2.357l-1.177,3.58l-0,5.938l1.177,3.58l1.177,2.402l2.399,2.357l2.354,1.224l4.754,-0l2.399,-1.224l2.354,-2.357l1.177,-2.402l1.223,-3.58l-0,-5.938l-1.223,-3.58l-1.177,-2.357l-2.354,-2.402l-2.399,-1.178l-4.754,-0Z" style="fill:none;stroke:#000;stroke-width:1.8px;"/><path id="_2DPOLYLINE1" serif:id="2DPOLYLINE" d="M26.952,37.752l-3.531,1.224l-2.399,3.535l-1.177,3.58l-0,5.938l1.177,3.58l2.399,3.58l3.531,1.179l2.4,-0l3.576,-1.179l2.354,-3.58l1.177,-3.58l0,-5.938l-1.177,-3.58l-2.354,-3.535l-3.576,-1.224l-2.4,0Z" style="fill:none;stroke:#000;stroke-width:1.8px;"/><path id="_2DPOLYLINE2" serif:id="2DPOLYLINE" d="M45.966,36.574l0,25.018" style="fill:none;stroke:#000;stroke-width:1.8px;"/><path id="_2DPOLYLINE3" serif:id="2DPOLYLINE" d="M47.189,37.752l-0,23.84l-1.223,-0" style="fill:none;stroke:#000;stroke-width:1.8px;"/><path id="_2DPOLYLINE4" serif:id="2DPOLYLINE" d="M45.966,36.574l14.261,-0" style="fill:none;stroke:#000;stroke-width:1.8px;"/><path id="_2DPOLYLINE5" serif:id="2DPOLYLINE" d="M47.189,37.752l13.038,0l-0,-1.178" style="fill:none;stroke:#000;stroke-width:1.8px;"/><path id="_2DPOLYLINE6" serif:id="2DPOLYLINE" d="M47.189,48.493l7.107,0l0,1.179l-7.107,-0" style="fill:none;stroke:#000;stroke-width:1.8px;"/><path id="_2DPOLYLINE7" serif:id="2DPOLYLINE" d="M67.379,36.574l0,25.018" style="fill:none;stroke:#000;stroke-width:1.8px;"/><path id="_2DPOLYLINE8" serif:id="2DPOLYLINE" d="M68.557,37.752l-0,23.84l-1.178,-0" style="fill:none;stroke:#000;stroke-width:1.8px;"/><path id="_2DPOLYLINE9" serif:id="2DPOLYLINE" d="M67.379,36.574l14.261,-0" style="fill:none;stroke:#000;stroke-width:1.8px;"/><path id="_2DPOLYLINE10" serif:id="2DPOLYLINE" d="M68.557,37.752l13.083,0l-0,-1.178" style="fill:none;stroke:#000;stroke-width:1.8px;"/><path id="_2DPOLYLINE11" serif:id="2DPOLYLINE" d="M68.557,48.493l7.152,0l0,1.179l-7.152,-0" style="fill:none;stroke:#000;stroke-width:1.8px;"/></g></svg>